# xmcd
#
# Track frame offsets: 
#        150
#        15809
#        30627
#        51103
#        69069
#        84667
#        102856
#        123149
#        138254
#        167255
#        182193
#        195607
#        210868
#        233071
#        251552
#        268513
#        289894
#
# Disc length: 4061 seconds
#
# Revision: 0
# Processed by: cddbd v1.5.2PL0 Copyright (c) Steve Scherf et al.
# Submitted via: ExactAudioCopy v1.0b3
#
DISCID=d30fdb11
DTITLE=Various Artist - Kitchener Blues Fest Vol. X
DYEAR=2011
DGENRE=Blues
TTITLE0=Jimmy Bowskill - Diamond Ring
TTITLE1=Harper - I Never Want
TTITLE2=Aphrodite's Bodice - Come On Corolla
TTITLE3=Errol Blackwood - A Bit Of Tears
TTITLE4=Matt Weidinger Band - Procrastination
TTITLE5=Diana Braithwaite - Good Luck Angel
TTITLE6=Tommy Castro - Monkey's Paradise
TTITLE7=Dylan Wickens - Tattoo Black
TTITLE8=John Primer - I Called My Baby
TTITLE9=Fraser/Daley - Homesick Daddy
TTITLE10=Manitoba Hal - Poulet Shack
TTITLE11=K.M. Williams - When I Rise
TTITLE12=Robin Banks - I'll Be Everything To You
TTITLE13=Blackburn - Four Brothers
TTITLE14=Mike McDonald And The Doobie Twisters - I Don't Want No Woman
TTITLE15=Daddy Long Legs - What You Need
TTITLE16=Bill Durst - 39 Days
EXTD=
EXTT0=
EXTT1=
EXTT2=
EXTT3=
EXTT4=
EXTT5=
EXTT6=
EXTT7=
EXTT8=
EXTT9=
EXTT10=
EXTT11=
EXTT12=
EXTT13=
EXTT14=
EXTT15=
EXTT16=
PLAYORDER=
